<svg xmlns="http://www.w3.org/2000/svg" viewBox="0 0 64 64">
  <defs>
    <linearGradient id="grad-tl" x1="0%" y1="100%" x2="100%" y2="0%">
      <stop offset="0%" stop-color="#0EA5E9"/>
      <stop offset="100%" stop-color="#14B8A6"/>
    </linearGradient>
    <linearGradient id="grad-tr" x1="0%" y1="0%" x2="100%" y2="100%">
      <stop offset="0%" stop-color="#14B8A6"/>
      <stop offset="100%" stop-color="#F97316"/>
    </linearGradient>
    <linearGradient id="grad-br" x1="100%" y1="0%" x2="0%" y2="100%">
      <stop offset="0%" stop-color="#F97316"/>
      <stop offset="100%" stop-color="#EC4899"/>
    </linearGradient>
    <linearGradient id="grad-bl" x1="100%" y1="100%" x2="0%" y2="0%">
      <stop offset="0%" stop-color="#EC4899"/>
      <stop offset="100%" stop-color="#8B5CF6"/>
    </linearGradient>
    <linearGradient id="grad-l" x1="100%" y1="100%" x2="0%" y2="0%">
      <stop offset="0%" stop-color="#8B5CF6"/>
      <stop offset="100%" stop-color="#0EA5E9"/>
    </linearGradient>
  </defs>

  <!-- Outer ring made of curved body segments -->

  <!-- Top segment (teal to orange) -->
  <path d="M20 10
           A26 26 0 0 1 44 10
           A18 18 0 0 0 20 10Z" fill="url(#grad-tr)"/>

  <!-- Right segment (orange to pink) -->
  <path d="M54 20
           A26 26 0 0 1 54 44
           A18 18 0 0 0 54 20Z" fill="url(#grad-br)"/>

  <!-- Bottom segment (pink to purple) -->
  <path d="M44 54
           A26 26 0 0 1 20 54
           A18 18 0 0 0 44 54Z" fill="url(#grad-bl)"/>

  <!-- Left segment (purple to blue) -->
  <path d="M10 44
           A26 26 0 0 1 10 20
           A18 18 0 0 0 10 44Z" fill="url(#grad-l)"/>

  <!-- Four heads -->
  <circle cx="14" cy="14" r="5.5" fill="url(#grad-tl)"/>
  <circle cx="50" cy="14" r="5.5" fill="url(#grad-tr)"/>
  <circle cx="50" cy="50" r="5.5" fill="url(#grad-br)"/>
  <circle cx="14" cy="50" r="5.5" fill="url(#grad-bl)"/>

  <!-- White center -->
  <circle cx="32" cy="32" r="13" fill="white"/>
</svg>
